<svg xmlns="http://www.w3.org/2000/svg" xmlns:xlink="http://www.w3.org/1999/xlink"><defs><style>
    .sprite-symbol-usage {display: none;}
    .sprite-symbol-usage:target {display: inline;}
  </style><symbol viewBox="0 0 40 40" id="cross">
<path d="M20.7,20l3.6-3.6c0.2-0.2,0.2-0.5,0-0.7s-0.5-0.2-0.7,0L20,19.3l-3.6-3.6c-0.2-0.2-0.5-0.2-0.7,0s-0.2,0.5,0,0.7l3.6,3.6
	l-3.6,3.6c-0.2,0.2-0.2,0.5,0,0.7c0.1,0.1,0.2,0.1,0.4,0.1s0.3,0,0.4-0.1l3.6-3.6l3.6,3.6c0.1,0.1,0.2,0.1,0.4,0.1s0.3,0,0.4-0.1
	c0.2-0.2,0.2-0.5,0-0.7L20.7,20z" />
</symbol><symbol viewBox="0 0 40 40" id="arrow-down">
<g>
	<path d="M20,24.3c-0.6,0-1.3-0.2-1.8-0.7l-7.1-7.1c-0.2-0.2-0.2-0.5,0-0.7s0.5-0.2,0.7,0l7.1,7.1c0.6,0.6,1.5,0.6,2.1,0l7.1-7.1
		c0.2-0.2,0.5-0.2,0.7,0s0.2,0.5,0,0.7l-7.1,7.1C21.3,24.1,20.6,24.3,20,24.3z" />
</g>
</symbol><symbol viewBox="0 0 40 40" id="settings">
<g>
	<path d="M20,28.5c-4.7,0-8.5-3.8-8.5-8.5c0-4.7,3.8-8.5,8.5-8.5c4.7,0,8.5,3.8,8.5,8.5C28.5,24.7,24.7,28.5,20,28.5z M20,12.5
		c-4.1,0-7.5,3.4-7.5,7.5s3.4,7.5,7.5,7.5s7.5-3.4,7.5-7.5S24.1,12.5,20,12.5z" />
	<path d="M20,24.5c-2.5,0-4.5-2-4.5-4.5s2-4.5,4.5-4.5c0.3,0,0.5,0.2,0.5,0.5s-0.2,0.5-0.5,0.5c-1.9,0-3.5,1.6-3.5,3.5
		s1.6,3.5,3.5,3.5s3.5-1.6,3.5-3.5c0-0.3,0.2-0.5,0.5-0.5s0.5,0.2,0.5,0.5C24.5,22.5,22.5,24.5,20,24.5z" />
	<path d="M22,10.5c-0.3,0-0.5-0.2-0.5-0.5V9c0-0.3-0.2-0.5-0.5-0.5h-2c-0.3,0-0.5,0.2-0.5,0.5v1c0,0.3-0.2,0.5-0.5,0.5
		s-0.5-0.2-0.5-0.5V9c0-0.8,0.7-1.5,1.5-1.5h2c0.8,0,1.5,0.7,1.5,1.5v1C22.5,10.3,22.3,10.5,22,10.5z" />
	<path d="M21,32.5h-2c-0.8,0-1.5-0.7-1.5-1.5v-1c0-0.3,0.2-0.5,0.5-0.5s0.5,0.2,0.5,0.5v1c0,0.3,0.2,0.5,0.5,0.5h2
		c0.3,0,0.5-0.2,0.5-0.5v-1c0-0.3,0.2-0.5,0.5-0.5s0.5,0.2,0.5,0.5v1C22.5,31.8,21.8,32.5,21,32.5z" />
	<path d="M10,22.5H9c-0.8,0-1.5-0.7-1.5-1.5v-2c0-0.8,0.7-1.5,1.5-1.5h1c0.3,0,0.5,0.2,0.5,0.5s-0.2,0.5-0.5,0.5H9
		c-0.3,0-0.5,0.2-0.5,0.5v2c0,0.3,0.2,0.5,0.5,0.5h1c0.3,0,0.5,0.2,0.5,0.5S10.3,22.5,10,22.5z" />
	<path d="M31,22.5h-1c-0.3,0-0.5-0.2-0.5-0.5s0.2-0.5,0.5-0.5h1c0.3,0,0.5-0.2,0.5-0.5v-2c0-0.3-0.2-0.5-0.5-0.5h-1
		c-0.3,0-0.5-0.2-0.5-0.5s0.2-0.5,0.5-0.5h1c0.8,0,1.5,0.7,1.5,1.5v2C32.5,21.8,31.8,22.5,31,22.5z" />
	<path d="M12.9,30c-0.4,0-0.8-0.1-1.1-0.4l-1.4-1.4c-0.6-0.6-0.6-1.5,0-2.1l0.7-0.7c0.2-0.2,0.5-0.2,0.7,0s0.2,0.5,0,0.7l-0.7,0.7
		c-0.2,0.2-0.2,0.5,0,0.7l1.4,1.4c0.2,0.2,0.5,0.2,0.7,0l0.7-0.7c0.2-0.2,0.5-0.2,0.7,0s0.2,0.5,0,0.7L14,29.5
		C13.7,29.8,13.3,30,12.9,30z" />
	<path d="M28.5,14.8c-0.1,0-0.3,0-0.4-0.1c-0.2-0.2-0.2-0.5,0-0.7l0.7-0.7c0.2-0.2,0.2-0.5,0-0.7l-1.4-1.4c-0.2-0.2-0.5-0.2-0.7,0
		L26,11.9c-0.2,0.2-0.5,0.2-0.7,0s-0.2-0.5,0-0.7l0.7-0.7c0.6-0.6,1.5-0.6,2.1,0l1.4,1.4c0.6,0.6,0.6,1.5,0,2.1l-0.7,0.7
		C28.7,14.8,28.6,14.8,28.5,14.8z" />
	<path d="M11.5,14.8c-0.1,0-0.3,0-0.4-0.1L10.5,14c-0.6-0.6-0.6-1.5,0-2.1l1.4-1.4c0.6-0.6,1.5-0.6,2.1,0l0.7,0.7
		c0.2,0.2,0.2,0.5,0,0.7s-0.5,0.2-0.7,0l-0.7-0.7c-0.2-0.2-0.5-0.2-0.7,0l-1.4,1.4c-0.2,0.2-0.2,0.5,0,0.7l0.7,0.7
		c0.2,0.2,0.2,0.5,0,0.7C11.8,14.8,11.6,14.8,11.5,14.8z" />
	<path d="M27.1,30c-0.4,0-0.8-0.1-1.1-0.4l-0.7-0.7c-0.2-0.2-0.2-0.5,0-0.7s0.5-0.2,0.7,0l0.7,0.7c0.2,0.2,0.5,0.2,0.7,0l1.4-1.4
		c0.2-0.2,0.2-0.5,0-0.7L28.1,26c-0.2-0.2-0.2-0.5,0-0.7s0.5-0.2,0.7,0l0.7,0.7c0.6,0.6,0.6,1.5,0,2.1l-1.4,1.4
		C27.8,29.8,27.5,30,27.1,30z" />
</g>
</symbol><symbol viewBox="0 0 40 40" id="page">
<g>
	<path d="M30,32.6H10c-0.3,0-0.5-0.2-0.5-0.5l0-24.1c0-0.1,0.1-0.3,0.1-0.4S9.9,7.4,10,7.4h10c0.3,0,0.5,0.2,0.5,0.5
		S20.3,8.4,20,8.4h-9.5l0,23.1h19l0-13.6c0-0.3,0.2-0.5,0.5-0.5s0.5,0.2,0.5,0.5l0,14.1c0,0.1-0.1,0.3-0.1,0.4S30.1,32.6,30,32.6z" />
	<path d="M30,14.4h-6c-0.3,0-0.5-0.2-0.5-0.5v-6c0-0.2,0.1-0.4,0.3-0.5c0.2-0.1,0.4,0,0.5,0.1l6,6c0.1,0.1,0.2,0.4,0.1,0.5
		S30.2,14.4,30,14.4z M24.5,13.4h4.3l-4.3-4.3V13.4z" />
	<path d="M20,12.5h-6c-0.3,0-0.5-0.2-0.5-0.5s0.2-0.5,0.5-0.5h6c0.3,0,0.5,0.2,0.5,0.5S20.3,12.5,20,12.5z" />
	<path d="M20,16.5h-6c-0.3,0-0.5-0.2-0.5-0.5s0.2-0.5,0.5-0.5h6c0.3,0,0.5,0.2,0.5,0.5S20.3,16.5,20,16.5z" />
	<path d="M26,20.5H14c-0.3,0-0.5-0.2-0.5-0.5s0.2-0.5,0.5-0.5h12c0.3,0,0.5,0.2,0.5,0.5S26.3,20.5,26,20.5z" />
	<path d="M26,24.5H14c-0.3,0-0.5-0.2-0.5-0.5s0.2-0.5,0.5-0.5h12c0.3,0,0.5,0.2,0.5,0.5S26.3,24.5,26,24.5z" />
	<path d="M26,28.5H14c-0.3,0-0.5-0.2-0.5-0.5s0.2-0.5,0.5-0.5h12c0.3,0,0.5,0.2,0.5,0.5S26.3,28.5,26,28.5z" />
</g>
</symbol><symbol viewBox="0 0 40 40" id="tick">
<g>
	<path d="M18.7,25.9c-0.7,0-1.3-0.3-1.8-0.7l-4.3-4.3c-0.2-0.2-0.2-0.5,0-0.7s0.5-0.2,0.7,0l4.3,4.3c0.3,0.3,0.8,0.5,1.2,0.4
		c0.4,0,0.9-0.3,1.1-0.7l6.6-10c0.2-0.2,0.5-0.3,0.7-0.1c0.2,0.2,0.3,0.5,0.1,0.7l-6.6,10c-0.4,0.6-1.1,1-1.8,1.1
		C18.9,25.9,18.8,25.9,18.7,25.9z" />
</g>
</symbol></defs><use id="cross-usage" xlink:href="#cross" class="sprite-symbol-usage" /><use id="arrow-down-usage" xlink:href="#arrow-down" class="sprite-symbol-usage" /><use id="settings-usage" xlink:href="#settings" class="sprite-symbol-usage" /><use id="page-usage" xlink:href="#page" class="sprite-symbol-usage" /><use id="tick-usage" xlink:href="#tick" class="sprite-symbol-usage" /></svg>